HIERARCHY
ROOT Hips
{
	OFFSET 0.000000 89.005402 0.000000
	CHANNELS 6 Xposition Yposition Zposition Xrotation Yrotation Zrotation
	JOINT Spine
	{
		OFFSET 0.116900 10.681000 0.373400
		CHANNELS 3 Xrotation Yrotation Zrotation
		JOINT Spine1
		{
			OFFSET 0.000000 13.840401 0.053500
			CHANNELS 3 Xrotation Yrotation Zrotation
			JOINT Spine2
			{
				OFFSET 0.000000 14.712700 -0.366200
				CHANNELS 3 Xrotation Yrotation Zrotation
				JOINT Neck
				{
					OFFSET 0.000000 35.415497 -3.314200
					CHANNELS 3 Xrotation Yrotation Zrotation
					JOINT Head
					{
						OFFSET 0.000000 16.899200 1.218300
						CHANNELS 3 Xrotation Yrotation Zrotation
						JOINT HeadTop_End
						{
							OFFSET 0.000000 22.206207 2.192500
							CHANNELS 3 Xrotation Yrotation Zrotation
							End Site
							{
								OFFSET 0.000000 22.314178 0.000000
							}
						}
					}
				}
				JOINT LeftShoulder
				{
					OFFSET 12.896400 26.716293 -4.548400
					CHANNELS 3 Xrotation Yrotation Zrotation
					JOINT LeftArm
					{
						OFFSET 19.027000 -4.857010 -1.718400
						CHANNELS 3 Xrotation Yrotation Zrotation
						JOINT LeftForeArm
						{
							OFFSET 24.179897 0.000000 0.000000
							CHANNELS 3 Xrotation Yrotation Zrotation
							JOINT LeftHand
							{
								OFFSET 27.156403 0.000000 0.000000
								CHANNELS 3 Xrotation Yrotation Zrotation
								JOINT LeftHandIndex1
								{
									OFFSET 16.441200 0.000000 0.000000
									CHANNELS 3 Xrotation Yrotation Zrotation
									JOINT LeftHandIndex2
									{
										OFFSET 4.821899 0.000000 0.000000
										CHANNELS 3 Xrotation Yrotation Zrotation
										JOINT LeftHandIndex3
										{
											OFFSET 6.386497 0.000000 0.000000
											CHANNELS 3 Xrotation Yrotation Zrotation
											JOINT LeftHandIndex4
											{
												OFFSET 5.188988 0.000000 0.000000
												CHANNELS 3 Xrotation Yrotation Zrotation
												End Site
												{
													OFFSET -0.178703 5.185913 0.000177
												}
											}
										}
									}
								}
								JOINT LeftHandThumb1
								{
									OFFSET 6.534897 -5.032593 5.900300
									CHANNELS 3 Xrotation Yrotation Zrotation
									JOINT LeftHandThumb2
									{
										OFFSET 3.818176 -2.204422 2.204423
										CHANNELS 3 Xrotation Yrotation Zrotation
										JOINT LeftHandThumb3
										{
											OFFSET 3.252098 -1.877594 1.877601
											CHANNELS 3 Xrotation Yrotation Zrotation
											JOINT LeftHandThumb4
											{
												OFFSET 5.251778 -3.032120 3.032117
												CHANNELS 3 Xrotation Yrotation Zrotation
												End Site
												{
													OFFSET 0.000023 6.780014 0.000000
												}
											}
										}
									}
								}
							}
						}
					}
				}
				JOINT RightShoulder
				{
					OFFSET -12.896300 26.716293 -4.548400
					CHANNELS 3 Xrotation Yrotation Zrotation
					JOINT RightArm
					{
						OFFSET -19.027000 -4.857010 -1.718400
						CHANNELS 3 Xrotation Yrotation Zrotation
						JOINT RightForeArm
						{
							OFFSET -24.179897 0.000000 0.000000
							CHANNELS 3 Xrotation Yrotation Zrotation
							JOINT RightHand
							{
								OFFSET -27.156403 0.000000 0.000000
								CHANNELS 3 Xrotation Yrotation Zrotation
								JOINT RightHandThumb1
								{
									OFFSET -6.591202 -4.852203 5.988100
									CHANNELS 3 Xrotation Yrotation Zrotation
									JOINT RightHandThumb2
									{
										OFFSET -3.818176 -2.204422 2.204423
										CHANNELS 3 Xrotation Yrotation Zrotation
										JOINT RightHandThumb3
										{
											OFFSET -3.252098 -1.877594 1.877601
											CHANNELS 3 Xrotation Yrotation Zrotation
											JOINT RightHandThumb4
											{
												OFFSET -5.251778 -3.032120 3.032117
												CHANNELS 3 Xrotation Yrotation Zrotation
												End Site
												{
													OFFSET -0.000023 6.780014 0.000000
												}
											}
										}
									}
								}
								JOINT RightHandIndex1
								{
									OFFSET -16.029404 0.000000 0.000000
									CHANNELS 3 Xrotation Yrotation Zrotation
									JOINT RightHandIndex2
									{
										OFFSET -5.213303 0.000000 0.000000
										CHANNELS 3 Xrotation Yrotation Zrotation
										JOINT RightHandIndex3
										{
											OFFSET -6.386528 0.000000 0.000000
											CHANNELS 3 Xrotation Yrotation Zrotation
											JOINT RightHandIndex4
											{
												OFFSET -5.189026 0.000000 0.000000
												CHANNELS 3 Xrotation Yrotation Zrotation
												End Site
												{
													OFFSET 0.236702 5.183624 0.001972
												}
											}
										}
									}
								}
							}
						}
					}
				}
			}
		}
	}
	JOINT LeftUpLeg
	{
		OFFSET 14.073000 -7.904099 -1.463000
		CHANNELS 3 Xrotation Yrotation Zrotation
		JOINT LeftLeg
		{
			OFFSET -0.109806 -34.073280 4.093200
			CHANNELS 3 Xrotation Yrotation Zrotation
			JOINT LeftFoot
			{
				OFFSET 0.109806 -29.899420 -6.319000
				CHANNELS 3 Xrotation Yrotation Zrotation
				JOINT LeftToeBase
				{
					OFFSET 1.551100 -14.988700 20.535801
					CHANNELS 3 Xrotation Yrotation Zrotation
					JOINT LeftToe_End
					{
						OFFSET 0.221200 0.570800 13.248301
						CHANNELS 3 Xrotation Yrotation Zrotation
						End Site
						{
							OFFSET 0.000000 13.262435 0.000000
						}
					}
				}
			}
		}
	}
	JOINT RightUpLeg
	{
		OFFSET -13.839300 -7.904099 -1.463000
		CHANNELS 3 Xrotation Yrotation Zrotation
		JOINT RightLeg
		{
			OFFSET 0.109694 -34.073219 4.093300
			CHANNELS 3 Xrotation Yrotation Zrotation
			JOINT RightFoot
			{
				OFFSET -0.109694 -29.899384 -6.319200
				CHANNELS 3 Xrotation Yrotation Zrotation
				JOINT RightToeBase
				{
					OFFSET -1.551100 -14.988700 20.535801
					CHANNELS 3 Xrotation Yrotation Zrotation
					JOINT RightToe_End
					{
						OFFSET -0.221200 0.570900 13.248299
						CHANNELS 3 Xrotation Yrotation Zrotation
						End Site
						{
							OFFSET 0.000000 13.262440 0.000000
						}
					}
				}
			}
		}
	}
}
MOTION
Frames: 4
Frame Time: 0.033333
0.192096 88.897415 1.849688 4.628438 1.245330 -1.621818 3.784040 0.268925 1.159799 2.206252 0.124877 0.252004 2.206340 0.128220 0.249597 -3.383214 -0.246287 1.355562 -4.018628 -1.130421 2.133696 0.000000 -0.000000 0.000000 0.759269 -1.883778 -16.359246 24.456718 -30.963870 -39.801992 -0.000036 -102.508244 -0.000026 -34.432589 -11.482797 37.746812 9.516785 -15.233955 -20.140184 0.141261 1.280048 -12.594270 0.162706 1.372467 -13.520699 -0.000000 -0.000000 0.000001 -19.117109 1.310233 -3.517131 4.581667 3.146615 0.308088 -6.888765 2.376492 13.871149 -0.000003 0.000001 0.000000 0.533781 4.512433 21.380287 26.677539 9.315694 34.968424 0.000009 107.796682 -0.000001 -31.112898 17.211763 -36.982660 -25.687486 1.552667 10.681855 5.274226 -5.935617 -1.311198 -3.507983 -24.306444 -18.543526 -0.000000 -0.000002 -0.000001 8.136529 13.790977 27.581863 0.043070 -0.632611 7.789926 0.256039 -1.524399 19.067318 -0.000000 0.000000 -0.000000 -14.063699 5.003457 5.990384 12.025839 -0.641189 5.188149 1.046247 0.534432 -7.451023 -7.886472 0.000001 -0.000004 0.000000 -0.000000 0.000000 -7.952001 -4.696371 -1.640887 9.329614 -9.935537 -3.142056 -0.082361 -2.453706 7.225059 -9.037699 -0.000001 0.000000 0.000000 -0.000002 -0.000000 
0.224000 88.843063 1.837753 4.913095 1.146180 -1.632431 3.824131 0.304691 1.200065 2.232934 0.139706 0.287669 2.233005 0.142085 0.285839 -3.391924 -0.237886 1.326065 -4.373604 -1.137876 2.091567 0.000000 -0.000000 0.000000 0.750137 -1.902022 -16.379396 23.738401 -30.342914 -40.142070 0.000113 -102.087060 0.000098 -35.378618 -12.029543 36.411240 9.445808 -15.199157 -20.431106 0.148727 1.313033 -12.924530 0.160362 1.362624 -13.421876 0.000001 0.000001 -0.000005 -18.832131 1.499897 -3.336000 4.606536 3.586458 -0.061771 -6.649092 2.751294 14.031351 0.000004 -0.000001 -0.000000 0.543415 4.528319 21.291219 26.518691 9.550241 35.132608 0.000037 107.824433 -0.000049 -30.901593 16.776907 -35.891363 -25.687472 1.552667 10.681874 5.274212 -5.935596 -1.311209 -3.507979 -24.306434 -18.543520 -0.000001 0.000000 0.000000 8.136525 13.790984 27.581875 0.043046 -0.632611 7.789920 0.256024 -1.524409 19.067325 0.000000 -0.000000 -0.000001 -13.959950 4.653993 6.060432 11.421501 -0.436227 5.034340 1.004952 0.556572 -7.674207 -7.260285 -0.000002 0.000001 0.000000 0.000000 0.000000 -7.958519 -4.595557 -1.669143 8.826397 -9.824523 -2.969710 -0.191287 -2.573224 7.065126 -8.464794 0.000003 -0.000001 0.000000 -0.000000 0.000000 
0.245938 88.842102 1.836563 5.287632 0.938826 -1.600440 3.851790 0.390262 1.199025 2.253410 0.188070 0.300127 2.253522 0.188632 0.298653 -3.426584 -0.255905 1.352348 -4.807686 -1.178003 2.074567 0.000000 -0.000000 -0.000000 0.745859 -1.911998 -16.375121 22.907145 -29.814988 -40.455395 0.000008 -101.510736 0.000043 -36.502563 -12.593274 34.994795 9.279693 -15.109312 -21.127095 0.167474 1.392171 -13.718654 0.155223 1.341008 -13.204988 -0.000000 0.000000 -0.000001 -18.167197 1.945372 -2.921195 4.665296 4.625633 -0.928312 -6.092024 3.629221 14.393722 0.000005 0.000001 -0.000000 0.546203 4.539425 21.274385 26.350629 9.787942 35.279894 -0.000001 107.809652 -0.000004 -30.825337 16.368292 -34.927197 -25.687465 1.552678 10.681860 5.274221 -5.935623 -1.311211 -3.507984 -24.306442 -18.543523 0.000001 0.000000 -0.000001 8.136527 13.790982 27.581842 0.043068 -0.632602 7.789931 0.256024 -1.524408 19.067318 0.000000 -0.000000 0.000000 -13.682754 4.415792 6.110700 10.302076 -0.198475 4.875486 1.225338 0.557105 -7.954974 -6.663292 0.000003 0.000001 -0.000000 -0.000000 -0.000000 -7.742848 -4.383858 -1.645047 7.655524 -9.758685 -2.858429 -0.059244 -2.810472 6.858510 -7.777610 -0.000007 0.000001 -0.000000 -0.000002 -0.000000 
0.216923 88.754959 1.828632 5.827774 0.560115 -1.452336 3.848344 0.497575 1.099101 2.256641 0.254441 0.274742 2.256830 0.254127 0.273026 -3.533773 -0.295217 1.454847 -5.318919 -1.212100 2.097184 -0.000000 0.000000 0.000000 0.744722 -1.925026 -16.312409 21.911798 -29.385198 -40.722411 0.000026 -100.830756 0.000024 -37.880328 -13.092907 33.544883 9.024541 -14.953331 -22.234258 0.199740 1.518210 -14.989144 0.147980 1.309699 -12.891211 -0.000000 -0.000001 0.000002 -17.136012 2.645714 -2.299470 4.758342 6.262163 -2.277619 -5.232164 5.001217 14.924930 0.000002 -0.000001 0.000001 0.545962 4.547287 21.328242 26.093068 10.065849 35.402520 -0.000055 107.721823 0.000035 -30.790493 15.958756 -33.956545 -25.687471 1.552665 10.681872 5.274215 -5.935632 -1.311194 -3.507974 -24.306429 -18.543533 0.000004 -0.000000 -0.000001 8.136517 13.790982 27.581878 0.043057 -0.632614 7.789934 0.256038 -1.524400 19.067317 0.000000 -0.000000 -0.000003 -13.822855 4.438708 6.083407 9.676084 0.029773 4.852539 1.282834 0.575174 -8.335341 -6.061401 -0.000004 -0.000001 0.000000 -0.000000 -0.000000 -8.106605 -4.114856 -1.766885 7.178833 -9.910781 -2.768501 -0.295404 -2.462765 6.707441 -6.720351 0.000002 -0.000001 -0.000000 0.000001 -0.000000 
